# xmcd CD database file
#
# Track frame offsets:
#	150
#	21671
#	40907
#	63154
#	85840
#	107720
#	131517
#	153819
#	186661
#	204302
#	218531
#	236374
#
# Disc length: 3352 seconds
#
# Revision: 0
# Processed by: cddbd v1.5.1PL0 Copyright (c) Steve Scherf et al.
# Submitted via: CDex 1.50
#
DISCID=9d0d160c
DTITLE=Various Artist - Grand Jazz @ 5 Volume 1
DYEAR=2004
DGENRE=Jazz
TTITLE0=Estate - Martino/Siegel
TTITLE1=In Water Bud - T. Monk
TTITLE2=Moonlight in Vermont -  K. Suessdorf
TTITLE3=You Don't Know what love is - Raye/DePaul
TTITLE4=Night and Day - C. poter
TTITLE5=Old devil Mooon -  B. Lane
TTITLE6=Tenderly - W. Gross
TTITLE7=In the Wee Small Hours of the Morning - Mann/Hilliard
TTITLE8=Stomping at the Savoy - Webb/Goodman
TTITLE9=My Shining Hour - H. Arlen
TTITLE10=All the Blues - M. Davis
TTITLE11=Unknown Track name
EXTD=YEAR: 2004
EXTT0=
EXTT1=
EXTT2=
EXTT3=
EXTT4=
EXTT5=
EXTT6=
EXTT7=
EXTT8=
EXTT9=
EXTT10=
EXTT11=
PLAYORDER=
